<svg xmlns="http://www.w3.org/2000/svg" width="1000" height="450" viewBox="0 0 1000 450"><g style="opacity:1;fill:#33402e;fill-opacity:1"><path d="M798.424 213.582c11.123-4.709 17.78-16.514 30-19.32 24.43-5.608 41.327 20.416 64 24.32-4.966-5.121-12.165-8.296-18-12.425-21.657-15.321-42.782-27.552-65-5.571-4.094 4.05-7.94 8.104-11 12.996m-212-2v1c16.844-4.001 33.122-22.58 51-20.696 16.305 1.718 24.183 15.538 38 21.696-2.67-5.153-6.879-9.864-11.04-13.91-27.521-26.765-52.239-3.89-77.96 11.91m111 8c-1.632-9.039-8.35-17.55-12-26-10.968-25.386-22.466-53.828-17.385-82 2.822-15.642 12.306-30.89 29.385-32.696 12.77-1.35 23.905 7.065 35 11.678 8.291 3.448 15.291 3.392 24 3.018v-1l-19-5c7.953-3.378 17.537-5.15 26-6.985 27.305-5.921 42.542 12.162 45.713 37.985 3.005 24.468-7.902 50.06-17.292 72-4.01 9.37-11.62 19.017-13.421 29 8.367-6.768 13.513-17.533 18.247-27 14.966-29.93 36.092-90.005-.247-113.892-20.844-13.702-40.968 3.026-62 4.56-5.971.435-11.65-3.903-17-6.064-8.342-3.369-18.052-4.995-27-3.086-41.829 8.924-30.36 68.534-20.656 96.482 5.628 16.21 14.005 37.959 27.656 49" style="fill:#33402e;fill-opacity:1;stroke:none" transform="translate(-232.654 -20.666)"/></g><path d="M90.624 241.642q20.287 0 30.146 10.2 9.86 10.086 9.86 29.013 0 12.353-4.873 21.646-4.76 9.18-13.94 14.28t-22.213 5.1q-1.7 0-4.533-.113t-5.894-.113q-2.946-.114-5.44-.114-3.966 0-7.82.114-3.853 0-6.233.226v-2.266q3.853-.227 5.78-.907 2.04-.68 2.72-2.72t.68-6.12v-56.213q0-4.193-.68-6.12-.68-2.04-2.72-2.72-1.927-.793-5.78-.907v-2.266q2.38.113 6.233.34 3.854.113 7.594 0 3.966-.114 8.953-.227t8.16-.113zm-2.833 2.04q-5.214 0-6.8 1.926-1.587 1.927-1.587 7.82v56.667q0 5.893 1.587 7.82 1.7 1.926 6.913 1.926 12.353 0 19.153-4.42 6.8-4.533 9.52-13.146 2.72-8.614 2.72-20.967 0-12.693-3.06-20.966-2.946-8.387-9.86-12.467-6.8-4.193-18.586-4.193zm67.813-2.04q2.38.113 6.233.226 3.853.114 7.593.114 5.327 0 10.2-.114 4.874-.113 6.914-.113 9.18 0 15.186 2.607 6.12 2.606 9.067 7.14 3.06 4.42 3.06 9.973 0 3.4-1.36 7.253t-4.76 7.253q-3.287 3.4-9.067 5.667-5.78 2.153-14.62 2.153h-10.88v-2.266h9.747q8.047 0 12.24-2.494 4.306-2.606 5.78-6.8 1.586-4.306 1.586-9.52 0-8.953-4.306-13.826-4.193-4.987-14.507-4.987-5.213 0-6.8 1.927t-1.586 7.82v56.213q0 4.08.68 6.12t2.606 2.72q2.04.68 5.894.907v2.266q-2.607-.226-6.574-.226-3.853-.114-7.82-.114-4.42 0-8.273.114-3.853 0-6.233.226v-2.266q3.853-.227 5.78-.907 2.04-.68 2.72-2.72t.68-6.12v-56.213q0-4.193-.68-6.12-.68-2.04-2.72-2.72-1.927-.793-5.78-.907zm18.02 40.233q6.12.226 9.633.566 3.513.227 5.667.454 2.266.226 4.306.566 7.593 1.247 10.88 4.647 3.4 3.287 4.987 10.313l2.833 11.56q1.133 4.987 2.267 7.254 1.246 2.153 3.74 2.04 1.926-.114 3.173-1.247 1.36-1.133 2.833-3.06l1.7 1.247q-2.38 3.513-4.986 5.44-2.494 1.813-7.14 1.813-4.194 0-7.367-2.493-3.173-2.494-4.76-9.747l-2.493-11.333q-1.02-4.874-2.38-8.387-1.247-3.627-3.627-5.667-2.266-2.04-6.8-2.04h-12.24zm102.266-40.8 27.653 71.286q1.7 4.307 3.854 5.78 2.153 1.36 3.966 1.474v2.266q-2.266-.226-5.553-.226-3.287-.114-6.573-.114-4.42 0-8.274.114-3.853 0-6.233.226v-2.266q5.78-.227 7.367-1.927 1.586-1.813-.68-7.593l-21.08-56.327 1.813-1.473-19.72 51.226q-1.813 4.534-2.153 7.707-.34 3.06.566 4.873 1.02 1.814 3.287 2.607 2.38.793 5.893.907v2.266q-3.173-.226-6.686-.226-3.4-.114-6.347-.114-2.833 0-4.873.114-1.927 0-3.627.226v-2.266q2.267-.567 4.647-2.607 2.38-2.153 4.306-7.253l26.634-68.68zm13.827 48.166v2.267h-33.774l1.134-2.267zm121.94-48.166 27.653 71.286q1.7 4.307 3.853 5.78 2.153 1.36 3.967 1.474v2.266q-2.267-.226-5.554-.226-3.286-.114-6.573-.114-4.42 0-8.273.114-3.854 0-6.234.226v-2.266q5.78-.227 7.367-1.927 1.587-1.813-.68-7.593l-21.08-56.327 1.813-1.473-19.72 51.226q-1.813 4.534-2.153 7.707-.34 3.06.567 4.873 1.02 1.814 3.286 2.607 2.38.793 5.894.907v2.266q-3.174-.226-6.687-.226-3.4-.114-6.347-.114-2.833 0-4.873.114-1.927 0-3.627.226v-2.266q2.267-.567 4.647-2.607 2.38-2.153 4.307-7.253l26.633-68.68zm13.826 48.166v2.267H391.71l1.133-2.267zm64.98-48.846q5.666 0 8.613 1.36 2.947 1.247 5.213 2.833 1.36.794 2.154 1.247.906.34 1.7.34 1.133 0 1.586-1.247.567-1.246.907-3.74h2.607q-.114 1.927-.34 4.647-.114 2.607-.227 7.027v11.446h-2.607q-.34-5.44-2.38-10.426-2.04-4.987-6.006-8.16-3.854-3.174-10.2-3.174-6.007 0-9.974 3.627-3.853 3.627-3.853 9.52 0 5.1 2.607 8.613 2.606 3.4 6.913 6.233 4.42 2.72 9.52 5.894 5.893 3.626 10.427 7.253 4.646 3.513 7.253 7.82 2.72 4.307 2.72 10.427 0 7.253-3.287 12.013t-8.726 7.14-12.014 2.38q-6.006 0-9.52-1.36t-6.006-2.833q-2.494-1.587-3.854-1.587-1.133 0-1.7 1.247-.453 1.246-.793 3.74h-2.607q.227-2.38.227-5.554.113-3.286.113-8.5.114-5.213.114-13.146h2.606q.454 6.8 2.494 12.693 2.153 5.893 6.46 9.52 4.42 3.513 11.673 3.513 3.74 0 7.027-1.473 3.4-1.587 5.553-4.873 2.153-3.4 2.153-8.727 0-4.647-2.266-8.047-2.154-3.513-6.12-6.46-3.967-3.06-9.294-6.233-5.326-3.287-9.973-6.687t-7.48-7.82q-2.72-4.533-2.72-10.88 0-6.686 2.947-10.993 3.06-4.42 7.933-6.46 4.873-2.153 10.427-2.153zm131.96 84.093 1.7.68q-1.36 4.647-3.174 7.707-1.7 3.173-3.966 5.213-2.154 1.927-5.894 3.513-3.626 1.587-9.406 1.587-6.007 0-11.674-2.04-5.553-1.927-11.56-4.76-6.006-2.833-13.26-5.213-.793-.227-1.473-.454-.68-.226-1.247-.34-2.153.794-4.646 1.247-2.494.453-4.76.453-2.267 0-3.74-.566-1.474-.567-1.474-1.7 0-2.38 6.12-2.38 3.967 0 8.5.906 4.08-1.133 7.027-2.606 2.947-1.36 6.007-2.607 3.173-1.247 7.593-1.587l.113 1.814q-3.4.34-5.893 1.246-2.493 1.02-4.987 2.154-2.493 1.133-5.893 2.153 5.667 1.133 12.353 2.38 6.687 1.247 12.92 2.153 6.234.907 10.654.907 8.16 0 12.806-2.38 4.76-2.38 7.253-7.48zm-42.727-84.433q10.767 0 18.813 4.873 8.16 4.874 12.58 14.054 4.534 9.066 4.534 22.1 0 12.693-4.647 22.213-4.533 9.52-12.693 14.846t-18.7 5.327q-10.767 0-18.927-4.873-8.047-4.874-12.58-14.054-4.42-9.18-4.42-22.1 0-12.693 4.647-22.213 4.646-9.52 12.693-14.846 8.16-5.327 18.7-5.327zm-.453 2.04q-7.367 0-12.807 5.1t-8.5 14.053q-2.947 8.953-2.947 20.74 0 12.013 3.287 20.967 3.4 8.84 9.067 13.713 5.78 4.76 12.693 4.76 7.367 0 12.807-5.1t8.386-14.053q3.06-9.067 3.06-20.74 0-12.127-3.4-20.967-3.286-8.84-8.953-13.6-5.667-4.873-12.693-4.873zm130.94-.453v2.266q-3.854.114-5.894 1.134-1.927 1.02-2.607 3.286t-.68 6.46v34.113q0 7.934-1.02 13.827t-3.626 10.2q-2.834 4.76-8.274 7.707-5.44 2.833-12.466 2.833-5.44 0-10.427-1.36-4.873-1.247-8.613-4.76-3.287-3.173-5.214-6.687-1.813-3.513-2.493-8.613t-.68-12.807v-35.586q0-4.193-.68-6.12-.68-2.04-2.72-2.72-1.927-.793-5.78-.907v-2.266q2.38.113 6.233.226 3.854.114 8.274.114 3.966 0 7.82-.114 3.966-.113 6.573-.226v2.266q-3.853.114-5.893.907-1.927.68-2.607 2.72-.68 1.927-.68 6.12v37.513q0 5.78.567 10.993.566 5.1 2.266 9.067 1.814 3.853 5.44 6.12 3.627 2.153 9.634 2.153 8.613 0 13.26-3.74 4.76-3.853 6.573-10.54 1.927-6.686 1.927-15.073v-35.36q0-4.193-1.02-6.46-.907-2.266-3.174-3.286t-6.12-1.134v-2.266q2.04.113 5.327.226 3.4.114 6.233.114 2.947 0 5.78-.114 2.947-.113 4.76-.226zm51.719 0v2.266q-3.853.114-5.893.907-1.927.68-2.607 2.72-.68 1.927-.68 6.12v56.213q0 4.08.68 6.12t2.607 2.72q2.04.68 5.893.907v2.266q-2.607-.226-6.573-.226-3.854-.114-7.82-.114-4.42 0-8.274.114-3.853 0-6.233.226v-2.266q3.853-.227 5.78-.907 2.04-.68 2.72-2.72t.68-6.12v-56.213q0-4.193-.68-6.12-.68-2.04-2.72-2.72-1.927-.793-5.78-.907v-2.266q2.38.113 6.233.226 3.854.114 8.274.114 3.966 0 7.82-.114 3.966-.113 6.573-.226zm95.693 0v2.266q-3.853.114-5.893 1.134-1.927 1.02-2.607 3.286t-.68 6.46v67.66h-2.606l-47.6-73.553v59.84q0 4.08.68 6.46.793 2.266 2.946 3.286 2.267.907 6.687 1.134v2.266q-2.04-.226-5.327-.226-3.286-.114-6.233-.114-2.833 0-5.78.114-2.833 0-4.76.226v-2.266q3.853-.227 5.78-1.134 2.04-1.02 2.72-3.286.68-2.38.68-6.46v-55.08q0-4.193-.68-6.12-.68-2.04-2.72-2.72-1.927-.793-5.78-.907v-2.266q1.927.113 4.76.226 2.947.114 5.78.114 2.493 0 4.76-.114 2.267-.113 4.08-.226l40.007 61.653v-48.507q0-4.193-.794-6.46-.68-2.266-2.947-3.286-2.153-1.02-6.573-1.134v-2.266q2.04.113 5.327.226 3.4.114 6.233.114 2.947 0 5.78-.114 2.947-.113 4.76-.226zm60.333-1.587q10.767 0 18.814 4.873 8.16 4.874 12.58 14.054 4.533 9.066 4.533 22.1 0 12.693-4.647 22.213-4.533 9.52-12.693 14.846t-18.7 5.327q-10.767 0-18.927-4.873-8.046-4.874-12.58-14.054-4.42-9.18-4.42-22.1 0-12.693 4.647-22.213t12.693-14.846q8.16-5.327 18.7-5.327zm-.453 2.04q-7.367 0-12.807 5.1t-8.5 14.053q-2.946 8.953-2.946 20.74 0 12.013 3.286 20.967 3.4 8.84 9.067 13.713 5.78 4.76 12.693 4.76 7.367 0 12.807-5.1t8.387-14.053q3.06-9.067 3.06-20.74 0-12.127-3.4-20.967-3.287-8.84-8.954-13.6-5.666-4.873-12.693-4.873z" aria-label="DRA ASQUINO" style="font-size:113.333px;font-family:&quot;Playfair Display&quot;;-inkscape-font-specification:&quot;Playfair Display&quot;;letter-spacing:15px;word-spacing:10px;fill:#33402e;stroke:#394238;stroke-width:.1;paint-order:markers stroke fill" transform="translate(0 -12.676)"/><path d="M1035.136 387.37v3h180v-3z" style="opacity:1;fill:#33402e;fill-opacity:1;stroke:none;stroke-width:1.08112" transform="translate(-261.23 -10.666)"/><path d="M320.864 387.37v3h180v-3z" style="opacity:1;fill:#33402e;fill-opacity:1;stroke:none;stroke-width:1.06064" transform="translate(-261.23 -10.666)"/><path d="M529.08 407.537v-37.333h12.96q4.64 0 7.947 1.493 3.36 1.493 5.12 4.267 1.76 2.72 1.76 6.613t-1.76 6.667-5.12 4.266q-3.307 1.494-7.947 1.494h-11.947l.8-.854v13.387zm1.813-13.387-.8-.8h12.054q6.293 0 9.6-2.826 3.36-2.827 3.36-7.947t-3.36-7.893q-3.307-2.827-9.6-2.827h-12.054l.8-.853zm44.627 13.387v-37.333H600v1.653h-22.667v34.027h23.414v1.653zm1.493-18.133v-1.654H597.6v1.654zm43.134 18.133v-37.333h12.96q6.986 0 10.88 3.253 3.946 3.253 3.946 9.12 0 3.893-1.76 6.667t-5.12 4.266q-3.306 1.494-7.946 1.494H621.16l.8-.854v13.387zm26.24 0-9.707-13.547h2.08l9.76 13.547zM621.96 394.15l-.8-.8h12.053q6.294 0 9.6-2.826 3.36-2.827 3.36-7.947t-3.36-7.893q-3.306-2.827-9.6-2.827H621.16l.8-.853zm45.48 13.387v-37.333h1.813v37.333zm39.933.213q-4.106 0-7.626-1.386-3.52-1.44-6.134-4-2.613-2.56-4.053-5.974-1.44-3.466-1.44-7.52t1.44-7.466q1.44-3.467 4.053-6.027t6.134-3.947q3.52-1.44 7.626-1.44 4.16 0 7.68 1.44 3.52 1.387 6.08 3.947 2.614 2.56 4.054 6.027 1.493 3.413 1.493 7.466t-1.493 7.52q-1.44 3.414-4.054 5.974-2.56 2.56-6.08 4-3.52 1.386-7.68 1.386zm0-1.653q3.734 0 6.934-1.28t5.546-3.627q2.4-2.346 3.68-5.44 1.334-3.146 1.334-6.88t-1.334-6.826q-1.28-3.147-3.68-5.494-2.346-2.346-5.546-3.626t-6.934-1.28q-3.68 0-6.88 1.28t-5.6 3.626q-2.346 2.347-3.68 5.494-1.28 3.093-1.28 6.826 0 3.734 1.28 6.88 1.334 3.094 3.68 5.44 2.4 2.347 5.6 3.627t6.88 1.28zm38.174 1.44v-37.333h14.4q5.973 0 10.4 2.453 4.426 2.4 6.88 6.613 2.506 4.16 2.506 9.6t-2.506 9.654q-2.454 4.16-6.88 6.613-4.427 2.4-10.4 2.4zm1.813-1.653h12.48q5.493 0 9.547-2.187 4.106-2.187 6.293-6.027 2.24-3.84 2.24-8.8t-2.24-8.8q-2.187-3.84-6.293-6.026-4.054-2.187-9.547-2.187h-12.48zm66.707 1.866q-4.107 0-7.627-1.386-3.52-1.44-6.133-4t-4.054-5.974q-1.44-3.466-1.44-7.52t1.44-7.466q1.44-3.467 4.054-6.027 2.613-2.56 6.133-3.947 3.52-1.44 7.627-1.44 4.16 0 7.68 1.44 3.52 1.387 6.08 3.947 2.613 2.56 4.053 6.027 1.493 3.413 1.493 7.466t-1.493 7.52q-1.44 3.414-4.053 5.974-2.56 2.56-6.08 4-3.52 1.386-7.68 1.386zm0-1.653q3.733 0 6.933-1.28t5.547-3.627q2.4-2.346 3.68-5.44 1.333-3.146 1.333-6.88t-1.333-6.826q-1.28-3.147-3.68-5.494-2.347-2.346-5.547-3.626t-6.933-1.28q-3.68 0-6.88 1.28t-5.6 3.626q-2.347 2.347-3.68 5.494-1.28 3.093-1.28 6.826 0 3.734 1.28 6.88 1.333 3.094 3.68 5.44 2.4 2.347 5.6 3.627t6.88 1.28zm38.173 1.44v-37.333h1.493l27.414 35.2h-.907v-35.2h1.813v37.333h-1.493l-27.413-35.2h.906v35.2zm67.933.213q-4.106 0-7.626-1.386-3.52-1.44-6.134-4-2.613-2.56-4.053-5.974-1.44-3.466-1.44-7.52t1.44-7.466q1.44-3.467 4.053-6.027t6.134-3.947q3.52-1.44 7.626-1.44 3.787 0 7.147 1.227t5.813 3.733l-1.12 1.174q-2.506-2.4-5.493-3.414-2.933-1.066-6.293-1.066-3.734 0-6.934 1.333-3.2 1.28-5.6 3.627-2.346 2.346-3.68 5.493-1.28 3.093-1.28 6.773t1.28 6.827q1.334 3.093 3.68 5.44 2.4 2.347 5.6 3.68 3.2 1.28 6.934 1.28 3.36 0 6.293-1.013 2.987-1.067 5.493-3.52l1.12 1.173q-2.453 2.507-5.813 3.787-3.36 1.226-7.147 1.226zm31.027-.213v-37.333h1.813v37.333zm18.013 0 17.28-37.333h1.76l17.28 37.333h-1.973l-16.587-36.107h.8l-16.586 36.107zm5.974-10.933.693-1.547h22.827l.693 1.547z" aria-label="PERIODONCIA" style="font-weight:250;font-size:53.3333px;font-family:Montserrat;-inkscape-font-specification:&quot;Montserrat weight=250&quot;;letter-spacing:9px;fill:#33402e;stroke:#394238;stroke-width:.589606;paint-order:markers stroke fill" transform="translate(-261.23 -10.666)"/></svg>