<?xml version="1.0" encoding="UTF-8" standalone="no"?>
<!-- Created with Inkscape (http://www.inkscape.org/) -->

<svg
   version="1.1"
   id="svg1"
   width="350"
   height="350"
   viewBox="0 0 350 350"
   sodipodi:docname="dra_asquino_logo_favicon_editable_onlylogo_greenbackthick.svg"
   inkscape:version="1.4.2 (f4327f4, 2025-05-13)"
   inkscape:export-filename="2026-05-14_dra_asquino_logo_transparent_1080.png"
   inkscape:export-xdpi="67.5"
   inkscape:export-ydpi="67.5"
   xmlns:inkscape="http://www.inkscape.org/namespaces/inkscape"
   xmlns:sodipodi="http://sodipodi.sourceforge.net/DTD/sodipodi-0.dtd"
   xmlns="http://www.w3.org/2000/svg"
   xmlns:svg="http://www.w3.org/2000/svg">
  <defs
     id="defs1" />
  <sodipodi:namedview
     id="namedview1"
     pagecolor="#ffffff"
     bordercolor="#000000"
     borderopacity="0.25"
     inkscape:showpageshadow="2"
     inkscape:pageopacity="0.0"
     inkscape:pagecheckerboard="0"
     inkscape:deskcolor="#d1d1d1"
     showgrid="false"
     inkscape:zoom="1.407552"
     inkscape:cx="228.05551"
     inkscape:cy="186.84922"
     inkscape:window-width="1920"
     inkscape:window-height="992"
     inkscape:window-x="-8"
     inkscape:window-y="-8"
     inkscape:window-maximized="1"
     inkscape:current-layer="g40" />
  <rect
     style="fill:#33402e;fill-opacity:1;stroke-width:19.8647;paint-order:markers stroke fill"
     id="rect1"
     width="348.58871"
     height="350"
     x="0.7056427"
     y="0"
     ry="79.458588"
     rx="79.458588" />
  <g
     inkscape:groupmode="layer"
     inkscape:label="Image"
     id="g1">
    <g
       id="g42">
      <g
         id="g2"
         transform="translate(-25,-25.000007)">
        <g
           id="g40"
           transform="translate(-539.42368,53.565579)"
           style="opacity:1;fill:#ffffff;fill-opacity:1">
          <path
             id="path5"
             style="fill:#ffffff;fill-opacity:1;stroke:none"
             d="m 834.01172,186.64844 c -6.91992,0.17615 -13.62253,2.77697 -19.21538,6.78349 -4.69809,3.32096 -8.68378,7.52037 -12.5367,11.76207 -2.67944,2.96428 -4.93149,6.2743 -7.03014,9.66542 -0.70215,1.09569 -1.4043,2.19138 -2.10645,3.28706 3.13733,-1.47128 6.39545,-2.69999 9.42396,-4.3927 7.2784,-4.13994 12.67033,-10.85664 19.93516,-15.01108 6.25336,-3.60926 13.97058,-4.06061 20.84622,-2.15949 7.5749,2.06946 14.28403,6.41968 20.79703,10.57467 7.5212,4.82163 15.09698,9.91261 23.76643,12.42521 3.44174,0.97754 7.00071,1.43955 10.50073,2.15714 -3.06449,-2.99493 -7.31877,-5.9207 -10.87798,-8.35607 -4.85134,-3.45798 -8.80643,-6.4647 -13.59201,-10.02288 -7.79839,-5.4219 -15.82593,-10.74335 -24.7905,-14.04201 -4.82974,-1.76469 -9.96125,-2.83037 -15.12037,-2.67083 z"
             sodipodi:nodetypes="ccccccccccccccc" />
          <path
             id="path4"
             style="fill:#ffffff;fill-opacity:1;stroke:none"
             d="m 636.82812,185.36328 c -8.50728,0.21924 -15.59241,4.70243 -23.00529,8.66725 -9.83226,5.29201 -12.9493,9.39179 -22.47208,15.19688 l -6.92692,5.92298 c 3.42491,-0.79991 6.82582,-1.7647 10.01965,-3.26076 10.14478,-4.53518 18.93855,-11.64206 29.2792,-15.78034 1.16734,-0.46239 2.35761,-0.86567 3.56248,-1.21867 0.32066,-0.0856 1.05536,-0.2876 1.53515,-0.39843 4.47562,-1.12491 9.23169,-0.92229 13.63183,0.43865 6.67613,2.0006 12.18252,6.47303 17.52142,10.77236 4.72395,3.82221 9.61871,7.56201 15.23451,9.98642 1.61554,0.75711 3.23108,1.51421 4.84662,2.27132 -2.15279,-3.91504 -4.06282,-8.00151 -6.85966,-11.51781 -3.35848,-4.31717 -7.2058,-8.2571 -11.40011,-11.7654 -5.65512,-4.64151 -12.43615,-8.14323 -19.76172,-9.04882 -1.72589,-0.21919 -3.46589,-0.30164 -5.20508,-0.26563 z"
             sodipodi:nodetypes="cccccccccccccccc" />
          <path
             id="path1"
             style="fill:#ffffff;fill-opacity:1;stroke:none"
             d="m 697.20508,69.302734 c -9.44212,0.281405 -18.95296,3.588721 -26.01135,9.970548 -5.8653,5.308676 -9.76321,12.50419 -11.87562,20.070556 -2.98949,10.551442 -3.14196,21.685022 -2.15752,32.539172 1.4657,15.73585 5.44727,31.1595 10.93858,45.95177 4.1782,11.29338 8.85806,22.54068 15.71335,32.50641 3.21763,4.69771 6.98962,9.03664 11.41404,12.63733 2.79608,2.26011 5.55252,4.56908 8.33203,6.8496 -0.91524,-4.3153 -1.67443,-8.65943 -2.64648,-12.96093 -1.49175,-6.053 -4.70752,-11.47304 -7.69472,-16.8813 -2.04603,-3.5927 -3.94217,-7.27498 -5.463,-11.12313 -3.90079,-9.09437 -7.65225,-18.26876 -10.67236,-27.6987 -0.55308,-1.7388 -1.14711,-3.67823 -1.66213,-5.51168 -3.58277,-12.58009 -5.62575,-25.80751 -4.10601,-38.88075 0.96945,-8.52766 3.58283,-17.116332 8.96242,-23.930981 3.46848,-4.412399 8.24927,-7.899747 13.73701,-9.278523 4.80332,-1.29383 9.94915,-0.965301 14.64785,0.601548 9.55584,3.000058 17.78506,9.168752 27.44039,11.906638 6.84338,1.867157 14.03449,1.977785 21.05806,1.320419 4.44366,-0.33544 8.8902,-0.621523 13.33061,-1.002059 -4.08356,-2.023891 -8.19037,-3.998441 -12.36024,-5.839126 -1.63701,-0.875913 -3.49795,-1.148797 -5.17792,-1.928063 -0.80938,-0.334386 -1.60169,-0.708017 -2.40129,-1.064842 5.56059,-1.327784 11.14447,-2.578974 16.76779,-3.609756 6.42914,-0.993533 13.28299,-0.527939 19.16385,2.433974 1.4622,0.719679 3.0305,1.696793 4.37724,2.757375 5.88377,4.59566 9.6414,11.380236 11.85261,18.408326 0.14066,0.43096 0.32396,1.03974 0.44725,1.48633 0.55474,1.91851 1.04928,4.0782 1.41687,6.15186 0.22401,1.23478 0.38356,2.27261 0.5427,3.52705 0.49691,3.8482 0.61722,7.73936 0.45318,11.61437 -0.0498,1.01937 -0.12912,2.30079 -0.22612,3.41988 -1.28434,14.12114 -5.88552,27.67652 -11.12059,40.76747 -2.16695,5.33961 -4.35297,10.67477 -6.71836,15.92988 -3.64965,7.8242 -8.80173,14.93012 -11.60827,23.14825 -1.39671,3.99034 -1.90603,8.20943 -2.81296,12.32286 -0.26759,1.33513 -0.53518,2.67027 -0.80277,4.00541 3.3778,-2.86669 6.78375,-5.59147 10.11871,-8.49812 4.69046,-4.13422 8.26784,-9.3596 11.40116,-14.72724 3.12727,-5.47204 5.87586,-11.14973 8.61673,-16.8219 6.90156,-14.66829 12.47536,-30.03309 15.7085,-45.94156 2.33521,-11.7628 3.34735,-23.9707 1.25132,-35.84814 -1.64657,-9.306093 -5.53974,-18.375528 -12.03196,-25.338133 -4.69958,-5.085464 -10.52986,-9.24037 -17.09325,-11.532565 -6.54079,-2.247299 -13.6588,-2.321079 -20.40344,-1.016534 -11.06079,2.004119 -21.35819,6.974898 -32.48072,8.704742 -2.21771,0.295404 -4.51996,0.639765 -6.69727,-0.08058 -4.07364,-1.214624 -7.61405,-3.68132 -11.54839,-5.240541 -6.91427,-2.866826 -14.42405,-4.425174 -21.91951,-4.276615 z" />
        </g>
      </g>
    </g>
  </g>
</svg>
